<svg width="50" height="50" viewBox="0 0 50 50" fill="white" xmlns="http://www.w3.org/2000/svg">
<path d="M5 0.0126953H45C46.2858 0.0126953 47.3981 0.441389 48.3369 1.2998L48.5225 1.47754C49.4993 2.45438 49.9873 3.62834 49.9873 5V35C49.9873 36.3717 49.4993 37.5456 48.5225 38.5225C47.5456 39.4993 46.3717 39.9873 45 39.9873H10V39.9824L0.0126953 49.9697V5C0.0126953 3.71416 0.441389 2.60193 1.2998 1.66309L1.47754 1.47754C2.45438 0.500698 3.62834 0.0126953 5 0.0126953ZM4.9873 37.8418L5.00879 37.8213L7.87988 35.0127H45.0127V4.9873H4.9873V37.8418Z" stroke="#E3E3E3" stroke-width="0.025"/>
<path d="M16.5793 11.0653H23.5139V14.5135H16.5793C15.1287 14.5135 13.8947 15.0215 12.8792 16.037C11.8636 17.0525 11.3557 18.2865 11.3557 19.7372C11.3558 21.1876 11.8638 22.421 12.8792 23.4364C13.8947 24.4519 15.1287 24.9598 16.5793 24.9598H23.5139V28.4081H16.5793C14.33 28.4081 12.3917 27.6658 10.7649 26.1796L10.4436 25.8719C8.75271 24.181 7.90756 22.1363 7.90747 19.7372C7.90747 17.4877 8.65055 15.5496 10.137 13.9227L10.4436 13.6014C12.1347 11.9104 14.18 11.0653 16.5793 11.0653ZM33.9475 11.0653C36.1968 11.0653 38.1342 11.8086 39.761 13.2948L40.0823 13.6014C41.7733 15.2925 42.6194 17.3379 42.6194 19.7372C42.6193 21.9863 41.876 23.9239 40.3899 25.5507L40.0823 25.8719C38.3913 27.5629 36.3467 28.4081 33.9475 28.4081H27.0129V24.9598H33.9475C35.3075 24.9598 36.4768 24.5136 37.4543 23.621L37.6467 23.4364C38.6622 22.421 39.1701 21.1877 39.1702 19.7372C39.1702 18.3772 38.7239 17.2079 37.8313 16.2303L37.6467 16.037C36.6313 15.0217 35.398 14.5136 33.9475 14.5135H27.0129V11.0653H33.9475ZM32.1985 18.0126V21.4608H18.3284V18.0126H32.1985Z" stroke="#E3E3E3" stroke-width="0.025"/>
</svg>
